# xmcd
#
# Track frame offsets:
#	150
#	17255
#	31700
#	40787
#	59989
#	71515
#	91407
#	109867
#	131335
#	142877
#	161290
#
# Disc length: 2417 seconds
#
# Revision: 2817908747
# Processed by: cddbd v1.5.2PL0 Copyright (c) Steve Scherf et al.
# Submitted via: EZCDAudioConverter 8.2.1.1
#
DISCID=85096f0b
DTITLE=Garth Brooks - The Chase
DYEAR=1992
DGENRE=Country
TTITLE0=We Shall Be Free - (1992)
TTITLE1=Somewhere Other Than The Night - (1992)
TTITLE2=Mr. Right - (1992)
TTITLE3=Every Now And Then - (1992)
TTITLE4=Walking After Midnight - (1992)
TTITLE5=Dixie Chicken - (1992)
TTITLE6=Learning To Live Again - (1992)
TTITLE7=That Summer - (1992)
TTITLE8=Something With A Ring To It - (1992)
TTITLE9=Night Rider's Lament - (1992)
TTITLE10=Face To Face - (1992)
EXTD=
EXTT0=
EXTT1=
EXTT2=
EXTT3=
EXTT4=
EXTT5=
EXTT6=
EXTT7=
EXTT8=
EXTT9=
EXTT10=
PLAYORDER=
